# xmcd
#
# Track frame offsets:
#	150
#	11191
#	23992
#	39809
#	54116
#	79988
#	99969
#	124538
#	143368
#	160376
#	186376
#	207187
#	225327
#	243633
#	278662
#	310273
#
# Disc length: 4781 seconds
#
# Revision: 1
# Processed by: cddbd v1.5.2PL0 Copyright (c) Steve Scherf et al.
# Submitted via: audiograbber 1.83.01
#
DISCID=c612ab10
DTITLE=Dance Planet - ÒENDANCE
DYEAR=2006
DGENRE=DANCE
TTITLE0=Dance Planet Tendance Intro
TTITLE1=G-Spott - Sadness (Original mix)
TTITLE2=Pulsedriver - Insane (BCM Edit)
TTITLE3=Delano and Crockett - Walking On The Moon (Hi_Tack Edit)
TTITLE4=Ricky Rivaro feat. Johnny Kelvin - The Beat Inside(Till West and DJ Del
TTITLE4=icious Remix)
TTITLE5=Benjamin Bates - Pure
TTITLE6=Klubbdriver - Quadrophonia (Klubbheads Electrovate mix)
TTITLE7=Tocadisco - Music Loud
TTITLE8=Fedde Le Grand - Put Your Hands Up For Detroit
TTITLE9=D.O.N.S. - "Big Fun" (D.O.N.S. Oldschool Revival Mix)
TTITLE10=Cosmic Gate - Should Have Known (DJ Delicious Rmx)
TTITLE11=The Caramel Club - Mama Say Mama Sa (Delano and Crockett Bootie Mix)
TTITLE12=Club Scene Investigators - Direct Dizko (Klubbheads Mix)
TTITLE13=Marco V. - False Light (Original Extended Mix)
TTITLE14=Warp Brothers - Push (Vector Mix)
TTITLE15=Äèñê ñ äàííûìè [CD-ROM)
EXTD=
EXTT0=
EXTT1=
EXTT2=
EXTT3=
EXTT4=
EXTT5=
EXTT6=
EXTT7=
EXTT8=
EXTT9=
EXTT10=
EXTT11=
EXTT12=
EXTT13=
EXTT14=
EXTT15=
PLAYORDER=
